<svg width="478" height="123" viewBox="0 0 478 123" fill="none" xmlns="http://www.w3.org/2000/svg">
    <path d="M2.41477 16.5426V12.6364H29.6875V16.5426H18.2528V49H13.8494V16.5426H2.41477ZM33.7269 49H29.1104L42.4627 12.6364H47.0082L60.3604 49H55.744L44.8775 18.3892H44.5934L33.7269 49ZM35.4315 34.7955H54.0394V38.7017H35.4315V34.7955ZM94.8597 12.6364V49H90.5984L70.783 20.4489H70.4279V49H66.0245V12.6364H70.2859L90.1722 41.2585H90.5273V12.6364H94.8597ZM108.074 12.6364V49H103.671V12.6364H108.074ZM136.79 21.7273C136.577 19.928 135.713 18.5312 134.197 17.5369C132.682 16.5426 130.824 16.0455 128.622 16.0455C127.012 16.0455 125.604 16.3059 124.396 16.8267C123.201 17.3475 122.266 18.0637 121.591 18.9751C120.928 19.8866 120.597 20.9223 120.597 22.0824C120.597 23.053 120.827 23.8875 121.289 24.5859C121.763 25.2725 122.366 25.8466 123.1 26.3082C123.834 26.758 124.603 27.1309 125.408 27.4268C126.213 27.7109 126.953 27.9418 127.628 28.1193L131.321 29.1136C132.268 29.3622 133.321 29.7055 134.482 30.1435C135.653 30.5814 136.772 31.1792 137.837 31.9368C138.915 32.6825 139.802 33.6413 140.501 34.8132C141.199 35.9851 141.548 37.4233 141.548 39.1278C141.548 41.0928 141.033 42.8684 140.004 44.4545C138.986 46.0407 137.494 47.3014 135.529 48.2365C133.576 49.1716 131.203 49.6392 128.409 49.6392C125.805 49.6392 123.55 49.219 121.644 48.3786C119.75 47.5381 118.259 46.3662 117.17 44.8629C116.093 43.3596 115.483 41.6136 115.341 39.625H119.886C120.005 40.9981 120.466 42.1345 121.271 43.0341C122.088 43.9219 123.118 44.5848 124.361 45.0227C125.616 45.4489 126.965 45.6619 128.409 45.6619C130.09 45.6619 131.599 45.3897 132.937 44.8452C134.274 44.2888 135.334 43.5194 136.115 42.5369C136.896 41.5426 137.287 40.3826 137.287 39.0568C137.287 37.8494 136.95 36.867 136.275 36.1094C135.6 35.3518 134.712 34.7363 133.612 34.2628C132.511 33.7893 131.321 33.375 130.043 33.0199L125.568 31.7415C122.727 30.9247 120.478 29.7588 118.821 28.2436C117.164 26.7285 116.335 24.7457 116.335 22.2955C116.335 20.2595 116.886 18.4839 117.987 16.9688C119.099 15.4418 120.591 14.258 122.461 13.4176C124.343 12.5653 126.444 12.1392 128.764 12.1392C131.108 12.1392 133.191 12.5594 135.014 13.3999C136.837 14.2285 138.281 15.3648 139.347 16.8089C140.424 18.2531 140.992 19.8925 141.051 21.7273H136.79ZM148.788 49V12.6364H153.192V28.8295H172.581V12.6364H176.984V49H172.581V32.7358H153.192V49H148.788ZM199.01 37.6364H203.84L207.888 42.9631L208.953 44.3835L214.99 52.4091H210.161L206.183 47.0824L205.189 45.733L199.01 37.6364ZM216.482 30.8182C216.482 34.6534 215.789 37.9678 214.404 40.7614C213.019 43.5549 211.119 45.7093 208.705 47.2244C206.29 48.7396 203.532 49.4972 200.431 49.4972C197.329 49.4972 194.571 48.7396 192.156 47.2244C189.742 45.7093 187.842 43.5549 186.457 40.7614C185.072 37.9678 184.379 34.6534 184.379 30.8182C184.379 26.983 185.072 23.6686 186.457 20.875C187.842 18.0814 189.742 15.9271 192.156 14.4119C194.571 12.8968 197.329 12.1392 200.431 12.1392C203.532 12.1392 206.29 12.8968 208.705 14.4119C211.119 15.9271 213.019 18.0814 214.404 20.875C215.789 23.6686 216.482 26.983 216.482 30.8182ZM212.22 30.8182C212.22 27.6695 211.694 25.0121 210.64 22.8459C209.598 20.6797 208.184 19.0402 206.396 17.9276C204.621 16.8149 202.632 16.2585 200.431 16.2585C198.229 16.2585 196.234 16.8149 194.447 17.9276C192.671 19.0402 191.257 20.6797 190.203 22.8459C189.162 25.0121 188.641 27.6695 188.641 30.8182C188.641 33.9669 189.162 36.6243 190.203 38.7905C191.257 40.9567 192.671 42.5961 194.447 43.7088C196.234 44.8215 198.229 45.3778 200.431 45.3778C202.632 45.3778 204.621 44.8215 206.396 43.7088C208.184 42.5961 209.598 40.9567 210.64 38.7905C211.694 36.6243 212.22 33.9669 212.22 30.8182Z" fill="url(#paint0_linear_2_4)"/>
    <path d="M243.403 49V12.6364H255.69C258.531 12.6364 260.863 13.1217 262.686 14.0923C264.509 15.0511 265.858 16.371 266.734 18.0518C267.61 19.7327 268.048 21.6444 268.048 23.7869C268.048 25.9295 267.61 27.8293 266.734 29.4865C265.858 31.1437 264.515 32.4458 262.704 33.3928C260.893 34.3279 258.579 34.7955 255.761 34.7955H245.818V30.8182H255.619C257.561 30.8182 259.123 30.5341 260.307 29.9659C261.502 29.3977 262.366 28.5928 262.899 27.5511C263.444 26.4976 263.716 25.2429 263.716 23.7869C263.716 22.331 263.444 21.0585 262.899 19.9695C262.355 18.8804 261.485 18.04 260.289 17.4482C259.094 16.8445 257.513 16.5426 255.548 16.5426H247.807V49H243.403ZM260.52 32.6648L269.469 49H264.355L255.548 32.6648H260.52ZM276.877 49H272.261L285.613 12.6364H290.159L303.511 49H298.894L288.028 18.3892H287.744L276.877 49ZM278.582 34.7955H297.19V38.7017H278.582V34.7955ZM338.01 12.6364V49H333.749L313.933 20.4489H313.578V49H309.175V12.6364H313.436L333.323 41.2585H333.678V12.6364H338.01ZM360.742 12.6364H365.145V38.6307C365.145 40.9508 364.719 42.9216 363.867 44.5433C363.015 46.165 361.813 47.3961 360.262 48.2365C358.712 49.0769 356.883 49.4972 354.776 49.4972C352.787 49.4972 351.018 49.1361 349.467 48.4141C347.916 47.6802 346.697 46.6385 345.809 45.2891C344.922 43.9396 344.478 42.3357 344.478 40.4773H348.81C348.81 41.5071 349.065 42.4067 349.574 43.1761C350.094 43.9337 350.805 44.5256 351.704 44.9517C352.604 45.3778 353.628 45.5909 354.776 45.5909C356.042 45.5909 357.12 45.3246 358.007 44.7919C358.895 44.2592 359.57 43.478 360.032 42.4482C360.505 41.4065 360.742 40.134 360.742 38.6307V12.6364ZM378.373 12.6364V49H373.97V12.6364H378.373ZM385.214 16.5426V12.6364H412.486V16.5426H401.052V49H396.648V16.5426H385.214ZM419.282 49V12.6364H423.686V28.8295H443.075V12.6364H447.478V49H443.075V32.7358H423.686V49H419.282Z" fill="white"/>
    <defs>
    <linearGradient id="paint0_linear_2_4" x1="16" y1="30" x2="266" y2="31.5" gradientUnits="userSpaceOnUse">
    <stop stop-color="#FF56F6"/>
    <stop offset="0.325713" stop-color="#B936EE" stop-opacity="0.5063"/>
    <stop offset="0.554409" stop-color="#406AFF"/>
    <stop offset="0.75" stop-color="#3BACE2"/>
    <stop offset="1" stop-color="#B936EE" stop-opacity="0.5063"/>
    </linearGradient>
    </defs>
    </svg>
    